<?xml version="1.0" encoding="utf-8"?>
<!-- Generator: Adobe Illustrator 22.1.0, SVG Export Plug-In . SVG Version: 6.00 Build 0)  -->
<svg version="1.1" id="Layer_1" xmlns="http://www.w3.org/2000/svg" xmlns:xlink="http://www.w3.org/1999/xlink" x="0px" y="0px"
	 viewBox="0 0 595.3 841.9" style="enable-background:new 0 0 595.3 841.9;" xml:space="preserve">
<style type="text/css">
	.st0{fill:#FEE7BB;}
	.st1{fill:#4A3718;}
	.st2{fill:#4F3917;}
	.st3{font-family:'ProductSans-Black';}
	.st4{font-size:53px;}
	.st5{font-size:54.7893px;}
	.st6{font-family:'ProductSans-Italic';}
	.st7{font-size:14px;}
</style>
<path class="st0" d="M452.8,578.9H223c-6.6,0-12-5.4-12-12V415.7c0-6.6,5.4-12,12-12h229.8c6.6,0,12,5.4,12,12v151.2
	C464.8,573.5,459.4,578.9,452.8,578.9z"/>
<circle class="st0" cx="225.6" cy="491.3" r="87.6"/>
<path class="st1" d="M177.2,473.2l4.2,47.6c-1,0.7-2.5,1.5-4.3,2.1c-4,1.2-7.5,0.5-9.1,0c-2.5-1.4-9.5-5.8-13.3-14.6
	c-2.5-5.7-2.6-10.8-2.5-13.8c0.1-2.8,0.9-9.3,5.5-15.7c3.6-5,7.9-7.6,10.3-8.9C171.1,470.9,174.2,472,177.2,473.2z"/>
<path class="st1" d="M273.9,473.2l-4.2,47.6c1,0.7,2.5,1.5,4.3,2.1c4,1.2,7.5,0.5,9.1,0c2.5-1.4,9.5-5.8,13.3-14.6
	c2.5-5.7,2.6-10.8,2.5-13.8c-0.1-2.8-0.9-9.3-5.5-15.7c-3.6-5-7.9-7.6-10.3-8.9C280,470.9,277,472,273.9,473.2z"/>
<path class="st2" d="M168.1,469.8c5.7-27.4,30.2-47,58-46.8c27.5,0.2,51.4,19.8,57,46.8c-3.1,1.1-6.1,2.2-9.2,3.3
	c-3.8-23.6-24.3-41.1-48.1-41.2c-24-0.1-44.7,17.4-48.6,41.2C174.2,472,171.1,470.9,168.1,469.8z"/>
<path class="st2" d="M182,467.1c-0.2,9.6,0.2,20.4,1.6,32.2c1.2,10.5,2.9,20.1,4.9,28.6c3.9,6.4,7.9,11.3,11,14.6
	c0,0,8.9,9,19.4,14.4c1.1,0.6,3.3,1.5,6.3,1.6c3.1,0,5.5-1,6.6-1.6c9.9-5.1,18.1-12.5,18.1-12.5c1.8-1.8,3.7-3.8,5.7-6.1
	c2.7-3.3,4.9-6.5,6.6-9.4c2.5-8.8,4.9-19.5,6.2-31.8c1.2-11.3,1.2-21.5,0.6-30c-6.1-19.5-24.3-32.6-44.4-32.2
	C205.1,435.2,187.8,448.3,182,467.1z"/>
<path class="st0" d="M187.1,470.6c-0.2,8.4,0.2,17.9,1.4,28.4c1.1,9.3,2.7,17.8,4.5,25.2c3.4,5.7,6.9,9.9,9.6,12.8
	c0,0,7.8,7.9,17.1,12.7c1,0.5,2.9,1.3,5.5,1.4c2.7,0,4.8-0.9,5.8-1.4c8.8-4.6,16-11,16-11c2.9-2.8,6.6-7,10.4-12.7
	c2.4-7.9,4.7-17.6,5.9-28.9c1.1-10,1-19,0.6-26.5c-5.3-17.2-21.4-28.8-39.2-28.4C207.5,442.5,192.3,454,187.1,470.6z"/>
<path class="st0" d="M300.4,610.2"/>
<g>
	<text transform="matrix(1.0071 0 0 1 305.8541 469.8133)"><tspan x="0" y="0" class="st1 st3 st4">the</tspan><tspan x="0" y="38.1" class="st1 st3 st4">tkm</tspan></text>
</g>
<g>
	<text transform="matrix(1.0071 0 0 1 301.2799 546.6355)" class="st1 st3 st5">show</text>
</g>
<path class="st2" d="M265.3,466c-11,13-22.1,26.1-33.1,39.1l-8.8-18.8l-17.5,18.8l18.1-45.7l10.9,15c5.7-8.4,11.4-16.9,17.1-25.3
	c2.2,1.7,5.1,4.3,7.8,7.8C262.6,460.3,264.2,463.5,265.3,466z"/>
<text transform="matrix(1.0071 0 0 1 304.14 564)" class="st1 st6 st7">nobody does it better</text>
</svg>
